# xmcd
#
# Track frame offsets: 
#        183
#        15468
#        30393
#        44253
#        58070
#        74645
#        90893
#        103633
#        118488
#        134688
#
# Disc length: 2000 seconds
#
# Revision: 7
# Processed by: cddbd v1.5.2PL0 Copyright (c) Steve Scherf et al.
# Submitted via: ExactAudioCopy v0.99pb4
#
DISCID=8807ce0a
DTITLE=Holly Dunn - Heart Full Of Love
DYEAR=1900
DGENRE=Country
TTITLE0=Heart Full Of Love
TTITLE1=Don't Worry
TTITLE2=Temporary Loss Of Memory
TTITLE3=The Light In The Window Went Out
TTITLE4=Home
TTITLE5=My Anniversary For Being A Fool
TTITLE6=You Really Had Me Going
TTITLE7=My Old Love In New Mexico
TTITLE8=When No Place Is Home
TTITLE9=Broken Heartland
EXTD=(c)1993 Warner Bros\nupc 075992617321
EXTT0=
EXTT1=
EXTT2=
EXTT3=
EXTT4=
EXTT5=
EXTT6=
EXTT7=
EXTT8=
EXTT9=
PLAYORDER=
